<svg xmlns="http://www.w3.org/2000/svg" viewBox="0 0 736.42 199.89"><defs><style>.cls-1{fill:#2069a5;}.cls-2{fill:#65ae33;}.cls-3{fill:#e6b71f;}.cls-4{fill:#c21b25;}.cls-5{fill:#4b9a33;}.cls-6{fill:#407f3e;}.cls-7{fill:#f9c40d;}.cls-8{fill:#e1371f;}.cls-9{fill:#f19d1a;}.cls-10{fill:#2793ce;}.cls-11{fill:#a51d3f;}.cls-12{fill:#3fb8e1;}.cls-13{fill:#e66225;}.cls-14{fill:#de1b32;}.cls-15{fill:#d91161;}.cls-16{fill:#1d4469;}.cls-17{fill:#cb9b19;}.cls-18{fill:#06659a;}</style></defs><g id="Capa_2" data-name="Capa 2"><g id="Capa_1-2" data-name="Capa 1"><path class="cls-1" d="M99.94,22.31a77.63,77.63,0,1,0,77.61,77.63A77.62,77.62,0,0,0,99.94,22.31ZM87.21,143h-9V113h-20v30h-9V74h9v30h29Zm-9-60V74h43v9Zm72,60h-8V113h-21v30h-9V104h30V74h8Z"/><path class="cls-1" d="M237.49,29.28v29h-4.77v-29H222v-4h26.22v4Z"/><path class="cls-1" d="M269.74,58.48c-2.45.2-5.94-.23-6.31-3.07a12.06,12.06,0,0,1-8,3.22c-4.68,0-7.45-2.53-7.45-7.28,0-6.3,5.54-7.51,9.8-7.6l5.5-.1V40.47c0-3.68-1.82-4.23-5.86-4.23A29.32,29.32,0,0,0,251,37.4l-1-3.59a22.68,22.68,0,0,1,8.43-1.63c5,0,9.26,1.2,9.26,7V52.75c0,1.68,1.13,2,2.31,2Zm-6.48-11.56-5.32.32c-4.26.29-5.53,1.64-5.53,3.74,0,2.84,1.55,3.82,3.81,3.82s6.58-2.57,7-2.7Z"/><path class="cls-1" d="M293.29,58.25V55.36c-1.81,1.26-4.81,3.51-8.67,3.51-7.21,0-7.8-5.14-7.8-9.9V32.77h4.58v15.5c0,3.88.5,6.44,4.54,6.44,2.41,0,6.21-2.28,7.35-2.94v-19h4.54V58.25Z"/><path class="cls-1" d="M306.72,58.25V23.07h4.63V58.25Z"/><path class="cls-1" d="M339.57,58.48c-2.45.2-5.95-.23-6.31-3.07a12.09,12.09,0,0,1-8,3.22c-4.67,0-7.44-2.53-7.44-7.28,0-6.3,5.54-7.51,9.8-7.6l5.49-.1V40.47c0-3.68-1.81-4.23-5.85-4.23a29.21,29.21,0,0,0-6.44,1.16l-1-3.59a22.64,22.64,0,0,1,8.43-1.63c5,0,9.26,1.2,9.26,7V52.75c0,1.68,1.13,2,2.31,2Zm-6.49-11.56-5.31.32c-4.26.29-5.53,1.64-5.53,3.74,0,2.84,1.54,3.82,3.81,3.82s6.58-2.57,7-2.7Z"/><path class="cls-1" d="M376.09,58.25V56.07a9.31,9.31,0,0,1-6.17,2.56c-4.62,0-10.57-1.82-10.57-13.16,0-8.63,5.49-13.16,12.2-13.16a14.77,14.77,0,0,1,4.54.56v-9.8h4.63V58.25Zm0-21.51a18.71,18.71,0,0,0-4.63-.41c-5.49,0-7.53,4.2-7.53,9.28,0,6.58,2.82,9,6.54,9,2.27,0,4.53-1.67,5.62-2.38Z"/><path class="cls-1" d="M389.89,33.25H386.3a13.66,13.66,0,0,0,1.32-5.33V23h4.63v2.56A13.56,13.56,0,0,1,389.89,33.25Z"/><path class="cls-1" d="M399.41,46.63c.14,6.91,3.77,8,8.62,8a36.93,36.93,0,0,0,6.35-.7l.78,3.78a34.07,34.07,0,0,1-8.22.94c-7.44,0-12.16-2.85-12.16-12.74,0-10.31,5-13.76,11.53-13.76s9.44,4.52,9.44,12.73v1.72Zm6.36-10.82c-3.13,0-5.9,2.29-6.27,7.37h11.39C410.94,38.57,409,35.81,405.77,35.81Z"/><path class="cls-1" d="M438.75,58.25V42.62c0-3.87-.64-6.38-4.63-6.38-2.72,0-6,2.19-7.17,2.84V58.25h-4.62V32.77H427v2.72c1.82-1.26,4.36-3.41,8.48-3.41,7.45,0,7.9,5.08,7.9,9.85V58.25Z"/><path class="cls-1" d="M461.39,58.77c-4.68,0-8.89,0-8.89-7.75V36.56h-3.63V32.77h3.63V27.56h4.58v5.21h7.66v3.79h-7.66V51c0,3.26.9,3.73,4.22,3.73a22.14,22.14,0,0,0,4.22-.56l.68,3.78A18.62,18.62,0,0,1,461.39,58.77Z"/><path class="cls-1" d="M474.45,28.58l-3.58-3.74,3.58-3.67,3.63,3.67Zm-2.26,29.67V32.77h4.63V58.25Z"/><path class="cls-1" d="M495.74,58.77c-4.67,0-8.9,0-8.9-7.75V36.56h-3.63V32.77h3.63V27.56h4.59v5.21h7.66v3.79h-7.66V51c0,3.26.91,3.73,4.22,3.73a22.14,22.14,0,0,0,4.22-.56l.68,3.78A18.78,18.78,0,0,1,495.74,58.77Z"/><path class="cls-1" d="M525.23,58.48c-2.45.2-5.94-.23-6.31-3.07a12.1,12.1,0,0,1-8,3.22c-4.68,0-7.45-2.53-7.45-7.28,0-6.3,5.53-7.51,9.8-7.6l5.49-.1V40.47c0-3.68-1.81-4.23-5.85-4.23a29.21,29.21,0,0,0-6.44,1.16l-1-3.59a22.75,22.75,0,0,1,8.44-1.63c5,0,9.26,1.2,9.26,7V52.75c0,1.68,1.14,2,2.31,2Zm-6.49-11.56-5.31.32c-4.27.29-5.54,1.64-5.54,3.74,0,2.84,1.55,3.82,3.82,3.82s6.57-2.57,7-2.7Z"/><path class="cls-1" d="M542.1,58.77c-4.67,0-8.89,0-8.89-7.75V36.56h-3.63V32.77h3.63V27.56h4.59v5.21h7.66v3.79H537.8V51c0,3.26.9,3.73,4.22,3.73a22.12,22.12,0,0,0,4.21-.56l.69,3.78A18.78,18.78,0,0,1,542.1,58.77Z"/><path class="cls-1" d="M558.12,58.72a30.32,30.32,0,0,1-8-1l.6-3.91a37.69,37.69,0,0,0,6.8.93c3.81,0,5.67-1.31,5.67-3.27,0-5.18-12.47-2.8-12.47-11.85,0-4.94,4-7.37,9-7.37a19.93,19.93,0,0,1,6.62,1.08L565.47,37a23.38,23.38,0,0,0-6-.89c-3,0-4.13,1.31-4.13,3,0,5.27,12.39,3.6,12.39,11.94C567.7,57.13,562.21,58.72,558.12,58.72Z"/><path class="cls-1" d="M241.07,114.23V112a9.31,9.31,0,0,1-6.17,2.57c-4.63,0-10.57-1.82-10.57-13.15,0-8.64,5.49-13.17,12.2-13.17a14.81,14.81,0,0,1,4.54.56v-9.8h4.63v35.18Zm0-21.51a19.11,19.11,0,0,0-4.63-.42c-5.49,0-7.53,4.21-7.53,9.29,0,6.58,2.81,9,6.53,9,2.27,0,4.54-1.67,5.63-2.38Z"/><path class="cls-1" d="M256.9,102.61c.14,6.91,3.77,8,8.63,8a37.15,37.15,0,0,0,6.35-.7l.77,3.79a34.16,34.16,0,0,1-8.21.92c-7.44,0-12.16-2.85-12.16-12.73,0-10.31,4.94-13.77,11.52-13.77s9.44,4.53,9.44,12.74v1.72Zm6.36-10.82c-3.13,0-5.9,2.29-6.26,7.37h11.38C268.43,94.55,266.48,91.79,263.26,91.79Z"/><path class="cls-1" d="M279.82,114.23V79.05h4.63v35.18Z"/><path class="cls-1" d="M317.57,85.26v29H312.8v-29H302.05v-4h26.22v4Z"/><path class="cls-1" d="M333.17,102.61c.14,6.91,3.77,8,8.62,8a37,37,0,0,0,6.35-.7l.77,3.79a34.09,34.09,0,0,1-8.21.92c-7.44,0-12.16-2.85-12.16-12.73,0-10.31,4.95-13.77,11.53-13.77s9.43,4.53,9.43,12.74v1.72Zm6.35-10.82c-3.13,0-5.9,2.29-6.26,7.37h11.39C344.69,94.55,342.74,91.79,339.52,91.79Z"/><path class="cls-1" d="M369.92,93a8.6,8.6,0,0,0-3-.37,7.72,7.72,0,0,0-6.21,3.4v18.24h-4.63V88.75h4.63v3.41a8.61,8.61,0,0,1,6.9-3.87,10.9,10.9,0,0,1,3,.33Z"/><path class="cls-1" d="M390.38,93.24a13.8,13.8,0,0,0-5.77-1.17c-4.35,0-7.12,2.9-7.12,9.28s1.73,9.34,8.76,9.34a29.53,29.53,0,0,0,4.85-.6l.64,3.68a21.31,21.31,0,0,1-5.9.88c-9.57,0-13.16-3.82-13.16-13.43,0-8.17,4.86-13.11,12.25-13.11a13.59,13.59,0,0,1,7,1.54Z"/><path class="cls-1" d="M400.63,102.61c.14,6.91,3.77,8,8.62,8a37,37,0,0,0,6.35-.7l.77,3.79a34.09,34.09,0,0,1-8.21.92c-7.43,0-12.16-2.85-12.16-12.73,0-10.31,4.95-13.77,11.53-13.77S417,92.68,417,100.89v1.72ZM407,91.79c-3.13,0-5.89,2.29-6.25,7.37h11.38C412.16,94.55,410.21,91.79,407,91.79Z"/><path class="cls-1" d="M437.38,93a8.54,8.54,0,0,0-3-.37,7.73,7.73,0,0,0-6.22,3.4v18.24h-4.62V88.75h4.62v3.41a8.61,8.61,0,0,1,6.9-3.87,11,11,0,0,1,3,.33Z"/><path class="cls-1" d="M464.11,114.75a19.21,19.21,0,0,1-9.44-2.1l1.5-3.82a18.54,18.54,0,0,0,7.84,1.81c3.95,0,7.13-1.39,7.13-5,0-7.46-15.56-5.55-15.56-16.52,0-5.64,4.76-8.21,10-8.21a18.52,18.52,0,0,1,8.57,1.68l-1.49,3.64a18.5,18.5,0,0,0-6.9-1.21c-3.4,0-5.62,1-5.62,4,0,6.58,15.83,5.74,15.83,16.33C476,112,470.46,114.75,464.11,114.75Z"/><path class="cls-1" d="M485.52,102.61c.14,6.91,3.77,8,8.63,8a37,37,0,0,0,6.35-.7l.76,3.79a34.09,34.09,0,0,1-8.21.92c-7.44,0-12.16-2.85-12.16-12.73,0-10.31,4.95-13.77,11.53-13.77s9.43,4.53,9.43,12.74v1.72Zm6.35-10.82c-3.12,0-5.89,2.29-6.26,7.37H497C497.05,94.55,495.09,91.79,491.87,91.79Z"/><path class="cls-1" d="M524.13,93.24a13.71,13.71,0,0,0-5.76-1.17c-4.36,0-7.12,2.9-7.12,9.28s1.72,9.34,8.75,9.34a29.24,29.24,0,0,0,4.85-.6l.64,3.68a21.31,21.31,0,0,1-5.9.88c-9.57,0-13.15-3.82-13.15-13.43,0-8.17,4.86-13.11,12.25-13.11a13.62,13.62,0,0,1,7,1.54Z"/><path class="cls-1" d="M541.24,114.75c-4.68,0-8.9,0-8.9-7.75V92.54h-3.62V88.75h3.62V83.53h4.59v5.22h7.67v3.79h-7.67V107c0,3.26.91,3.73,4.22,3.73a22,22,0,0,0,4.21-.56l.68,3.78A18.54,18.54,0,0,1,541.24,114.75Z"/><path class="cls-1" d="M560.79,114.79c-7.16,0-11.34-4.8-11.34-13,0-8.72,4.86-13.66,11.75-13.66,7.76,0,11.57,4.75,11.57,13.39C572.77,110.36,567.55,114.79,560.79,114.79Zm.27-22.86c-5.49,0-6.94,4.95-6.94,9.62,0,5,1.68,9.37,7,9.37s6.81-4.53,6.81-9.42C568,97,566.7,91.93,561.06,91.93Z"/><path class="cls-1" d="M593.46,93a8.6,8.6,0,0,0-3-.37,7.75,7.75,0,0,0-6.21,3.4v18.24h-4.63V88.75h4.63v3.41a8.61,8.61,0,0,1,6.89-3.87,11.07,11.07,0,0,1,3.05.33Z"/><path class="cls-1" d="M620.18,114.75a19.16,19.16,0,0,1-9.43-2.1l1.5-3.82a18.55,18.55,0,0,0,7.85,1.81c3.93,0,7.11-1.39,7.11-5,0-7.46-15.56-5.55-15.56-16.52,0-5.64,4.76-8.21,10-8.21a18.52,18.52,0,0,1,8.57,1.68l-1.49,3.64a18.5,18.5,0,0,0-6.9-1.21c-3.4,0-5.63,1-5.63,4,0,6.58,15.84,5.74,15.84,16.33C632.07,112,626.53,114.75,620.18,114.75Z"/><path class="cls-1" d="M648.31,114.79c-7.16,0-11.34-4.8-11.34-13,0-8.72,4.85-13.66,11.75-13.66,7.76,0,11.57,4.75,11.57,13.39C660.29,110.36,655.07,114.79,648.31,114.79Zm.28-22.86c-5.5,0-7,4.95-7,9.62,0,5,1.68,9.37,7,9.37s6.8-4.53,6.8-9.42C655.48,97,654.21,91.93,648.59,91.93Z"/><path class="cls-1" d="M682.84,93.24a13.75,13.75,0,0,0-5.76-1.17c-4.36,0-7.12,2.9-7.12,9.28s1.72,9.34,8.75,9.34a29.67,29.67,0,0,0,4.86-.6l.63,3.68a21.3,21.3,0,0,1-5.89.88c-9.58,0-13.16-3.82-13.16-13.43,0-8.17,4.85-13.11,12.24-13.11a13.59,13.59,0,0,1,7,1.54Z"/><path class="cls-1" d="M693.32,84.55l-3.58-3.72,3.58-3.69L697,80.83Zm-2.27,29.68V88.75h4.63v25.48Z"/><path class="cls-1" d="M724.4,114.48c-2.45.17-5.95-.25-6.3-3.09a12.12,12.12,0,0,1-8,3.22c-4.67,0-7.44-2.52-7.44-7.28,0-6.3,5.54-7.52,9.8-7.6l5.49-.1V96.46c0-3.69-1.81-4.25-5.85-4.25a28.68,28.68,0,0,0-6.44,1.17l-1-3.6a22.86,22.86,0,0,1,8.44-1.63c5,0,9.25,1.22,9.25,7v13.53c0,1.68,1.13,2,2.31,2Zm-6.49-11.59-5.31.33c-4.26.29-5.53,1.64-5.53,3.74,0,2.85,1.54,3.82,3.81,3.82s6.58-2.57,7-2.7Z"/><path class="cls-1" d="M731.8,114.23V79.05h4.62v35.18Z"/><path class="cls-1" d="M241.07,170.22V168a9.36,9.36,0,0,1-6.17,2.56c-4.63,0-10.57-1.82-10.57-13.16,0-8.63,5.49-13.16,12.2-13.16a14.81,14.81,0,0,1,4.54.56V135h4.63v35.19Zm0-21.51a18,18,0,0,0-4.63-.43c-5.49,0-7.53,4.21-7.53,9.29,0,6.58,2.81,9,6.53,9,2.27,0,4.54-1.67,5.63-2.37Z"/><path class="cls-1" d="M256.9,158.59c.14,6.91,3.77,8,8.63,8a37.15,37.15,0,0,0,6.35-.7l.77,3.79a34.58,34.58,0,0,1-8.21.93c-7.44,0-12.16-2.85-12.16-12.74,0-10.3,4.94-13.76,11.52-13.76s9.44,4.51,9.44,12.73v1.72Zm6.36-10.82c-3.13,0-5.9,2.29-6.26,7.37h11.38C268.43,150.52,266.48,147.77,263.26,147.77Z"/><path class="cls-1" d="M309,170.68c-10.89,0-16.88-6.86-16.88-16.75,0-10.69,5.9-17.08,16.7-17.08,5.53,0,8.35,1.17,9.48,1.69L317,142.31a23.55,23.55,0,0,0-8.08-1.26c-6.44,0-11.88,3.55-11.88,12.42s5.66,13,12.79,13a21.64,21.64,0,0,0,7.35-1l1.22,3.88A26.63,26.63,0,0,1,309,170.68Z"/><path class="cls-1" d="M343.16,170.45c-2.46.19-6-.23-6.31-3.09a12,12,0,0,1-8,3.23c-4.67,0-7.44-2.52-7.44-7.28,0-6.3,5.53-7.51,9.8-7.61l5.49-.09v-3.18c0-3.68-1.82-4.24-5.86-4.24a29.32,29.32,0,0,0-6.44,1.16l-.95-3.58a22.7,22.7,0,0,1,8.44-1.63c5,0,9.25,1.2,9.25,7v13.54c0,1.66,1.14,2,2.32,2Zm-6.49-11.57-5.31.32c-4.27.29-5.54,1.64-5.54,3.74,0,2.84,1.55,3.82,3.82,3.82s6.57-2.56,7-2.7Z"/><path class="cls-1" d="M360,170.74c-4.67,0-8.9,0-8.9-7.76V148.52h-3.63v-3.78h3.63v-5.23h4.58v5.23h7.67v3.78h-7.67v14.42c0,3.26.91,3.73,4.23,3.73a22,22,0,0,0,4.21-.56l.69,3.78A18.32,18.32,0,0,1,360,170.74Z"/><path class="cls-1" d="M389.52,170.45c-2.45.19-5.94-.23-6.3-3.09a12,12,0,0,1-8,3.23c-4.67,0-7.44-2.52-7.44-7.28,0-6.3,5.53-7.51,9.8-7.61l5.49-.09v-3.18c0-3.68-1.82-4.24-5.86-4.24a29.32,29.32,0,0,0-6.44,1.16l-.95-3.58a22.7,22.7,0,0,1,8.44-1.63c5,0,9.25,1.2,9.25,7v13.54c0,1.66,1.14,2,2.32,2ZM383,158.88l-5.31.32c-4.27.29-5.54,1.64-5.54,3.74,0,2.84,1.54,3.82,3.81,3.82s6.58-2.56,7-2.7Z"/><path class="cls-1" d="M396.92,170.22V135h4.63v35.19Z"/><path class="cls-1" d="M426.64,170.22v-2.9c-1.81,1.26-4.81,3.5-8.67,3.5-7.21,0-7.8-5.13-7.8-9.89V144.74h4.58v15.5c0,3.87.5,6.43,4.54,6.43,2.41,0,6.21-2.29,7.35-2.94v-19h4.54v25.48Z"/><path class="cls-1" d="M456.49,170.22V154.58c0-3.88-.63-6.39-4.63-6.39-2.72,0-6,2.2-7.16,2.85v19.18h-4.63V144.74h4.63v2.7c1.81-1.25,4.35-3.4,8.49-3.4,7.43,0,7.89,5.08,7.89,9.85v16.33Z"/><path class="cls-1" d="M476.73,180.43h-4.49l3.4-10.21h-1.95l-8.17-25.48h5l5.13,17.4,1.27,4.43,1.41-4.38,5.81-17.45h4.76Z"/><path class="cls-1" d="M513.34,170.45c-2.44.19-5.94-.23-6.3-3.09a12,12,0,0,1-8,3.23c-4.67,0-7.44-2.52-7.44-7.28,0-6.3,5.54-7.51,9.8-7.61l5.5-.09v-3.18c0-3.68-1.82-4.24-5.86-4.24a29.32,29.32,0,0,0-6.44,1.16l-.95-3.58a22.7,22.7,0,0,1,8.44-1.63c5,0,9.25,1.2,9.25,7v13.54c0,1.66,1.14,2,2.32,2Zm-6.48-11.57-5.31.32c-4.26.29-5.54,1.64-5.54,3.74,0,2.84,1.55,3.82,3.82,3.82s6.58-2.56,7-2.7Z"/><path class="cls-2" d="M43.21,41.14,31,27.69A100.47,100.47,0,0,0,12.28,52L28.6,60.09A82.31,82.31,0,0,1,43.21,41.14Z"/><path class="cls-3" d="M165.15,24.21A100.53,100.53,0,0,0,139,7.93l-6.55,17a81.41,81.41,0,0,1,20.35,12.7Z"/><path class="cls-4" d="M199.13,87.52a99,99,0,0,0-8.3-29.17L174.5,66.49a81.2,81.2,0,0,1,6.44,22.75Z"/><path class="cls-5" d="M171.72,60.84,188,52.71a99.67,99.67,0,0,0-18.24-24.23l-12.3,13.43A82.32,82.32,0,0,1,171.72,60.84Z"/><path class="cls-6" d="M18.39,95,.21,93.4Q0,96.64,0,99.92a99.69,99.69,0,0,0,3,24.17l17.54-5a81.9,81.9,0,0,1-2.27-19.12C18.23,98.29,18.29,96.66,18.39,95Z"/><path class="cls-7" d="M146.29,167.26l9.57,15.49a100.11,100.11,0,0,0,22.46-20.87l-14.53-10.95A82.24,82.24,0,0,1,146.29,167.26Z"/><path class="cls-8" d="M179.42,118.93,197,124a99.81,99.81,0,0,0,2.92-24c0-2,0-4.09-.18-6.13l-18.17,1.72c.08,1.47.12,2.95.12,4.43A81.92,81.92,0,0,1,179.42,118.93Z"/><path class="cls-9" d="M36.83,151.86l-14.48,11A101.09,101.09,0,0,0,45,183.42l9.56-15.48A82.13,82.13,0,0,1,36.83,151.86Z"/><path class="cls-10" d="M9.44,57.58A99.06,99.06,0,0,0,.81,87.13L19,88.76a80.94,80.94,0,0,1,6.73-23.05Z"/><path class="cls-11" d="M122.33,197.37a100.16,100.16,0,0,0,28.19-11.26L141,170.63a81,81,0,0,1-22,8.81Z"/><path class="cls-12" d="M182.08,156.83A99.36,99.36,0,0,0,195.27,130l-17.54-5a80.94,80.94,0,0,1-10.19,20.88Z"/><path class="cls-13" d="M88.68,180.89,85.3,198.83a102.51,102.51,0,0,0,14.63,1.06,100.67,100.67,0,0,0,16.22-1.31l-3.37-17.91a81.42,81.42,0,0,1-24.1.22Z"/><path class="cls-14" d="M134.49,5.64A92.79,92.79,0,0,0,106.21,0V18.29a77.33,77.33,0,0,1,22.4,4.39Z"/><path class="cls-15" d="M50.39,186.72a99.29,99.29,0,0,0,28.72,11l3.37-17.92A81.21,81.21,0,0,1,60,171.23Z"/><path class="cls-16" d="M96.21,0A88,88,0,0,0,66.72,5.47l6.34,17a75,75,0,0,1,23.15-4.22Z"/><path class="cls-17" d="M4.67,130.17a100.77,100.77,0,0,0,13.86,27.68l14.49-11a81.31,81.31,0,0,1-10.82-21.7Z"/><path class="cls-18" d="M61.33,7.72a100.39,100.39,0,0,0-25.7,15.76L47.9,36.93a81.61,81.61,0,0,1,20-12.21Z"/></g></g></svg>